<svg version="1.1" id="Layer_1" xmlns="http://www.w3.org/2000/svg" xmlns:xlink="http://www.w3.org/1999/xlink" x="0px" y="0px"
	 width="100%" viewBox="0 0 203 204" enable-background="new 0 0 203 204" xml:space="preserve">
<path fill="#000000" opacity="1.000000" stroke="none" 
	d="
M204.000000,35.000000 
	C204.000000,80.354225 204.000000,125.708458 203.650330,171.633759 
	C198.273788,188.940186 187.774796,200.057388 170.476120,204.219604 
	C170.266937,204.269943 170.156525,204.730774 170.000000,205.000000 
	C124.645775,205.000000 79.291542,205.000000 33.370560,204.646301 
	C25.313820,201.840958 17.700214,199.130722 12.738761,192.806305 
	C8.203793,187.025528 4.865599,180.305893 1.000001,174.000000 
	C1.000000,126.979103 1.000000,79.958214 1.273297,32.243134 
	C6.456551,16.275673 16.567574,6.418610 32.087051,2.157715 
	C32.778530,1.967869 33.364750,1.394649 34.000000,1.000000 
	C79.020897,1.000000 124.041786,1.000000 169.656647,1.351676 
	C187.298737,6.020116 198.416336,16.407728 202.941376,33.579521 
	C203.080948,34.109219 203.637726,34.528984 204.000000,35.000000 
M8.997440,89.500000 
	C8.997402,113.663925 8.946546,137.827988 9.013168,161.991730 
	C9.067903,181.843002 23.227634,195.961014 43.130623,195.986786 
	C82.459427,196.037720 121.788406,196.041397 161.117188,195.984695 
	C180.668442,195.956512 194.946335,181.750702 194.980804,162.244278 
	C195.050568,122.748871 195.041000,83.253212 194.985519,43.757771 
	C194.958176,24.287148 180.650818,10.037465 161.124405,10.012599 
	C121.795593,9.962516 82.466637,9.964182 43.137817,10.011955 
	C23.263069,10.036098 9.073274,24.208685 9.008273,44.005077 
	C8.959575,58.836571 8.997875,73.668350 8.997440,89.500000 
z"/>
<path fill="#D9D9D9" opacity="1.000000" stroke="none" 
	d="
M204.000000,34.531342 
	C203.637726,34.528984 203.080948,34.109219 202.941376,33.579521 
	C198.416336,16.407728 187.298737,6.020116 170.125305,1.351676 
	C181.259903,1.000000 192.519821,1.000000 204.000000,1.000000 
	C204.000000,12.019917 204.000000,23.041300 204.000000,34.531342 
z"/>
<path fill="#D9D9D9" opacity="1.000000" stroke="none" 
	d="
M170.468658,205.000000 
	C170.156525,204.730774 170.266937,204.269943 170.476120,204.219604 
	C187.774796,200.057388 198.273788,188.940186 203.650330,172.102417 
	C204.000000,182.927658 204.000000,193.855331 204.000000,205.000000 
	C192.980057,205.000000 181.958679,205.000000 170.468658,205.000000 
z"/>
<path fill="#D9D9D9" opacity="1.000000" stroke="none" 
	d="
M33.531342,1.000000 
	C33.364750,1.394649 32.778530,1.967869 32.087051,2.157715 
	C16.567574,6.418610 6.456551,16.275673 1.273297,31.774477 
	C1.000000,21.737831 1.000000,11.475662 1.000000,1.000000 
	C11.686615,1.000000 22.374649,1.000000 33.531342,1.000000 
z"/>
<path fill="#D9D9D9" opacity="1.000000" stroke="none" 
	d="
M1.000001,174.468658 
	C4.865599,180.305893 8.203793,187.025528 12.738761,192.806305 
	C17.700214,199.130722 25.313820,201.840958 32.901901,204.646301 
	C22.407969,205.000000 11.815937,205.000000 1.000000,205.000000 
	C1.000000,194.980209 1.000000,184.958771 1.000001,174.468658 
z"/>
<path fill="#DADADA" opacity="1.000000" stroke="none" 
	d="
M8.997440,89.000000 
	C8.997875,73.668350 8.959575,58.836571 9.008273,44.005077 
	C9.073274,24.208685 23.263069,10.036098 43.137817,10.011955 
	C82.466637,9.964182 121.795593,9.962516 161.124405,10.012599 
	C180.650818,10.037465 194.958176,24.287148 194.985519,43.757771 
	C195.041000,83.253212 195.050568,122.748871 194.980804,162.244278 
	C194.946335,181.750702 180.668442,195.956512 161.117188,195.984695 
	C121.788406,196.041397 82.459427,196.037720 43.130623,195.986786 
	C23.227634,195.961014 9.067903,181.843002 9.013168,161.991730 
	C8.946546,137.827988 8.997402,113.663925 8.997440,89.000000 
M38.430840,19.697002 
	C25.632275,21.583956 18.279236,29.819006 18.186890,43.980614 
	C17.930582,83.285881 17.904829,122.595131 18.176180,161.900131 
	C18.284317,177.563751 27.146603,186.623383 42.760563,186.757416 
	C82.231491,187.096283 121.709099,187.109177 161.179993,186.775330 
	C176.669983,186.644318 185.672363,177.711792 185.793335,162.459503 
	C186.107742,122.822197 186.057312,83.179085 185.678711,43.542816 
	C185.630844,38.530785 183.608337,33.032013 180.993561,28.660175 
	C176.222931,20.683922 167.785507,19.133005 159.181396,19.118132 
	C121.206551,19.052481 83.231529,19.076893 45.256592,19.098591 
	C43.266937,19.099728 41.277439,19.375584 38.430840,19.697002 
z"/>
<path fill="#020101" opacity="1.000000" stroke="none" 
	d="
M38.859352,19.610271 
	C41.277439,19.375584 43.266937,19.099728 45.256592,19.098591 
	C83.231529,19.076893 121.206551,19.052481 159.181396,19.118132 
	C167.785507,19.133005 176.222931,20.683922 180.993561,28.660175 
	C183.608337,33.032013 185.630844,38.530785 185.678711,43.542816 
	C186.057312,83.179085 186.107742,122.822197 185.793335,162.459503 
	C185.672363,177.711792 176.669983,186.644318 161.179993,186.775330 
	C121.709099,187.109177 82.231491,187.096283 42.760563,186.757416 
	C27.146603,186.623383 18.284317,177.563751 18.176180,161.900131 
	C17.904829,122.595131 17.930582,83.285881 18.186890,43.980614 
	C18.279236,29.819006 25.632275,21.583956 38.859352,19.610271 
M64.070282,105.060684 
	C64.070282,105.060684 63.941399,105.141502 64.153656,105.842667 
	C67.436272,106.850746 70.668571,108.106529 74.017769,108.786827 
	C76.595329,109.310394 79.319901,109.110161 82.783798,109.176834 
	C83.859131,109.233459 84.934456,109.290092 85.988998,110.095016 
	C86.113800,112.975143 86.278793,115.647301 89.933937,112.250481 
	C90.660500,111.575279 91.885887,111.436844 93.168297,111.642303 
	C93.393456,112.427322 93.618614,113.212341 93.165779,114.125069 
	C92.456802,115.427048 91.747826,116.729019 91.002121,118.002594 
	C91.002121,118.002594 91.043541,118.037666 90.477570,118.113373 
	C90.175652,118.421783 89.873734,118.730202 89.571815,119.038612 
	C90.052536,119.355621 90.533264,119.672638 90.999924,120.000000 
	C90.999924,120.000000 91.010544,119.985939 91.110680,120.690971 
	C93.975990,125.368240 99.124466,125.584984 103.642136,126.863052 
	C104.520363,127.111511 105.873535,125.681190 107.838379,124.999405 
	C109.225296,125.001770 110.612213,125.004143 112.294487,125.536232 
	C113.196182,125.356895 114.097870,125.177559 115.832481,124.988632 
	C117.220947,124.984917 118.609421,124.981201 120.282043,125.522095 
	C120.835121,125.773994 121.534798,126.383072 121.919662,126.225121 
	C129.768951,123.003639 135.571945,117.419319 140.692368,110.089363 
	C141.824493,109.821991 142.956619,109.554611 144.690628,108.863907 
	C145.435501,108.265388 146.103806,107.508163 146.942276,107.103653 
	C148.380127,106.409973 150.882874,106.261116 151.208817,105.298088 
	C151.756378,103.680206 151.152451,101.543106 150.623535,99.744881 
	C150.358093,98.842445 149.223343,97.656090 148.421677,97.608437 
	C147.675797,97.564095 146.465591,98.715401 146.133682,99.594696 
	C145.230560,101.987167 144.684143,104.514275 143.221695,107.231842 
	C141.258896,107.491791 139.296112,107.751747 136.961151,108.060997 
	C136.961151,105.285622 137.204971,103.285332 136.876648,101.383827 
	C136.652451,100.085388 135.629639,98.924835 134.864258,96.988464 
	C132.871277,92.761650 131.836136,87.533463 128.684052,84.518440 
	C122.304695,78.416443 113.789368,81.260826 106.036362,81.470078 
	C105.675278,81.479828 105.340706,82.471962 104.198891,83.028740 
	C95.846695,83.880684 91.686844,89.394600 88.565788,96.201027 
	C86.808456,96.193764 85.051125,96.186508 82.520607,96.372849 
	C82.003304,96.494164 81.486000,96.615471 80.367928,96.341110 
	C71.544907,94.266151 69.744064,95.110664 68.698090,101.961029 
	C67.588509,101.961029 66.454720,101.961029 65.103157,101.532043 
	C65.103157,101.532043 64.956352,101.073898 65.003304,100.431900 
	C64.117966,99.001656 63.232624,97.571411 61.534725,94.828506 
	C61.061085,98.678619 60.731743,101.355728 60.660294,104.850426 
	C61.790253,104.870247 62.920212,104.890060 64.070282,105.060684 
M49.255699,97.845695 
	C48.574974,98.139877 47.378281,98.338669 47.303200,98.744812 
	C46.984993,100.466057 46.999969,102.248886 46.873936,104.326668 
	C44.086460,103.889717 41.755795,103.524384 40.546906,103.334885 
	C42.924217,104.697723 46.135620,106.538727 49.520023,108.478889 
	C50.066799,106.851273 50.724548,104.893318 51.948120,102.617935 
	C52.966759,100.660706 53.985397,98.703468 55.004036,96.746239 
	C54.530964,96.490479 54.057892,96.234711 53.584820,95.978943 
	C52.362129,96.669678 51.139442,97.360413 49.255699,97.845695 
M156.023605,99.997551 
	C156.067001,102.653343 156.110397,105.309135 155.610703,108.095123 
	C155.502335,108.600250 155.393951,109.105370 155.285583,109.610497 
	C158.190704,109.438889 161.239960,109.744934 163.950119,108.927177 
	C165.746399,108.385170 165.824677,100.181137 163.801712,98.904556 
	C161.862930,97.681091 159.072922,97.792076 156.640854,97.423073 
	C156.553177,97.409775 156.293854,98.527969 156.023605,99.997551 
M152.037491,109.098297 
	C152.037491,109.098297 152.002396,108.878670 152.002396,108.878670 
	C152.002396,108.878670 151.950394,109.087173 152.037491,109.098297 
z"/>
<path fill="#21211F" opacity="1.000000" stroke="none" 
	d="
M81.979103,109.231781 
	C79.319901,109.110161 76.595329,109.310394 74.017769,108.786827 
	C70.668571,108.106529 67.436272,106.850746 64.397614,105.353882 
	C64.868019,103.897072 65.094467,102.929047 65.320923,101.961029 
	C66.454720,101.961029 67.588509,101.961029 68.698090,101.961029 
	C69.744064,95.110664 71.544907,94.266151 80.569153,97.005142 
	C81.173286,101.523384 81.576195,105.377579 81.979103,109.231781 
M67.857719,104.467979 
	C68.239975,104.538216 68.622238,104.608452 69.004494,104.678688 
	C68.711403,104.508514 68.418312,104.338333 67.857719,104.467979 
z"/>
<path fill="#3E1108" opacity="1.000000" stroke="none" 
	d="
M119.997887,124.977493 
	C118.609421,124.981201 117.220947,124.984917 115.041000,124.984192 
	C113.499390,124.988678 112.749260,124.997597 111.999130,125.006508 
	C110.612213,125.004143 109.225296,125.001770 107.023384,124.992554 
	C102.565544,123.560287 98.922707,122.134880 95.279861,120.709473 
	C95.446625,120.218193 95.613380,119.726921 95.780144,119.235641 
	C94.190277,119.485741 92.600410,119.735847 91.010544,119.985947 
	C91.010544,119.985939 90.999924,120.000000 91.013809,119.669456 
	C91.032974,118.905167 91.038261,118.471413 91.043549,118.037666 
	C91.043541,118.037666 91.002121,118.002594 91.317291,117.883667 
	C92.792068,117.160973 93.951668,116.557213 95.472565,115.976646 
	C97.292549,116.726669 98.751236,117.453506 100.378250,118.427765 
	C103.168861,120.956482 105.712463,122.864624 109.712685,121.873718 
	C112.351540,121.220039 115.283600,121.750031 118.578232,121.750031 
	C119.272491,121.089638 120.470505,118.962967 121.811234,118.868813 
	C125.177986,118.632416 125.857468,116.182198 127.433189,114.028503 
	C128.216354,114.050308 128.664337,114.075317 129.072144,114.466240 
	C127.937721,119.921066 123.769302,122.272522 119.997887,124.977493 
z"/>
<path fill="#411E13" opacity="1.000000" stroke="none" 
	d="
M92.881256,111.050888 
	C91.885887,111.436844 90.660500,111.575279 89.933937,112.250481 
	C86.278793,115.647301 86.113800,112.975143 86.325928,109.590927 
	C87.424286,108.400322 88.185730,107.713799 89.212158,106.980713 
	C92.263336,104.148445 88.944366,102.887909 88.019585,100.784462 
	C88.036118,100.535530 88.056389,100.036987 88.357132,99.995651 
	C89.110535,99.585274 89.563179,99.216232 89.874420,98.581650 
	C89.513542,97.753906 89.294083,97.191696 89.074623,96.629494 
	C91.686844,89.394600 95.846695,83.880684 104.796082,83.140129 
	C105.649643,83.439682 105.853523,83.673599 105.753998,84.181030 
	C103.821007,85.599449 102.138947,86.790092 100.358002,87.986404 
	C100.259109,87.992081 100.043182,88.288986 99.732880,88.508560 
	C97.403549,91.155571 94.231560,93.325806 93.620003,96.067223 
	C92.546974,100.877342 93.042664,106.037407 92.881256,111.050888 
z"/>
<path fill="#1C0806" opacity="1.000000" stroke="none" 
	d="
M106.004929,83.953262 
	C105.853523,83.673599 105.649643,83.439682 105.193527,83.129044 
	C105.340706,82.471962 105.675278,81.479828 106.036362,81.470078 
	C113.789368,81.260826 122.304695,78.416443 128.684052,84.518440 
	C131.836136,87.533463 132.871277,92.761650 134.933197,97.460297 
	C135.002151,97.932137 134.819901,98.076859 134.612930,98.241318 
	C133.592712,97.445000 132.693100,96.543472 131.984390,95.510933 
	C130.563416,93.440636 129.246750,91.298744 127.865067,89.181366 
	C127.843109,89.176338 127.805862,89.151024 127.811417,88.785400 
	C126.334610,85.435921 124.202431,84.220833 120.628662,85.799545 
	C115.505760,85.106651 110.755341,84.529953 106.004929,83.953262 
z"/>
<path fill="#140806" opacity="1.000000" stroke="none" 
	d="
M120.139969,125.249794 
	C123.769302,122.272522 127.937721,119.921066 129.312317,114.337585 
	C130.064819,113.567467 130.536957,113.291931 131.153381,112.927002 
	C131.541626,112.521584 131.492538,112.249489 131.099167,111.959686 
	C131.047943,111.898048 130.887848,111.905815 130.960327,111.692368 
	C131.032791,111.478912 131.247009,111.081085 131.477097,111.045753 
	C131.824097,110.354515 131.941010,109.698616 132.019989,108.712997 
	C131.917557,108.171631 131.853043,107.959991 131.798157,107.554382 
	C131.807785,107.360420 131.948181,106.998283 132.286743,107.004211 
	C133.302505,106.997162 133.979736,106.984192 134.704468,107.381439 
	C136.506714,108.630005 138.261459,109.468338 140.016190,110.306671 
	C135.571945,117.419319 129.768951,123.003639 121.919662,126.225121 
	C121.534798,126.383072 120.835121,125.773994 120.139969,125.249794 
z"/>
<path fill="#555450" opacity="1.000000" stroke="none" 
	d="
M156.114517,99.118835 
	C156.293854,98.527969 156.553177,97.409775 156.640854,97.423073 
	C159.072922,97.792076 161.862930,97.681091 163.801712,98.904556 
	C165.824677,100.181137 165.746399,108.385170 163.950119,108.927177 
	C161.239960,109.744934 158.190704,109.438889 155.285583,109.610497 
	C155.393951,109.105370 155.502335,108.600250 156.148102,107.792404 
	C157.696274,105.822403 158.707031,104.155121 160.000977,102.632729 
	C160.671158,102.654961 161.058151,102.532303 161.445129,102.409653 
	C161.246017,102.175148 161.046906,101.940643 160.820770,101.359421 
	C159.808014,100.636826 158.822266,100.260963 157.666229,99.705246 
	C157.035461,99.389877 156.574982,99.254356 156.114517,99.118835 
z"/>
<path fill="#D06F3F" opacity="1.000000" stroke="none" 
	d="
M93.024780,111.346596 
	C93.042664,106.037407 92.546974,100.877342 93.620003,96.067223 
	C94.231560,93.325806 97.403549,91.155571 99.781113,88.931274 
	C99.371902,90.376808 98.651970,91.651909 97.828392,92.856117 
	C93.538490,99.128601 92.548897,105.562378 96.739357,112.311340 
	C97.937958,114.241753 99.055321,116.222610 100.209930,118.180336 
	C98.751236,117.453506 97.292549,116.726669 95.366821,115.700882 
	C94.547775,114.933739 94.195778,114.465546 93.843773,113.997360 
	C93.618614,113.212341 93.393456,112.427322 93.024780,111.346596 
z"/>
<path fill="#93928D" opacity="1.000000" stroke="none" 
	d="
M143.996368,106.988022 
	C144.684143,104.514275 145.230560,101.987167 146.133682,99.594696 
	C146.465591,98.715401 147.675797,97.564095 148.421677,97.608437 
	C149.223343,97.656090 150.358093,98.842445 150.623535,99.744881 
	C151.152451,101.543106 151.756378,103.680206 151.208817,105.298088 
	C150.882874,106.261116 148.380127,106.409973 146.942276,107.103653 
	C146.103806,107.508163 145.435501,108.265388 144.326752,108.693878 
	C143.974045,108.011902 143.985199,107.499962 143.996368,106.988022 
z"/>
<path fill="#8C8D87" opacity="1.000000" stroke="none" 
	d="
M51.382298,102.935371 
	C50.724548,104.893318 50.066799,106.851273 49.520023,108.478889 
	C46.135620,106.538727 42.924217,104.697723 40.546906,103.334885 
	C41.755795,103.524384 44.086460,103.889717 46.873936,104.326668 
	C46.999969,102.248886 46.984993,100.466057 47.303200,98.744812 
	C47.378281,98.338669 48.574974,98.139877 49.623825,98.341225 
	C50.455402,100.202957 50.918854,101.569168 51.382298,102.935371 
z"/>
<path fill="#110402" opacity="1.000000" stroke="none" 
	d="
M91.060608,120.338455 
	C92.600410,119.735847 94.190277,119.485741 95.780144,119.235641 
	C95.613380,119.726921 95.446625,120.218193 95.279861,120.709473 
	C98.922707,122.134880 102.565544,123.560287 106.608009,125.005463 
	C105.873535,125.681190 104.520363,127.111511 103.642136,126.863052 
	C99.124466,125.584984 93.975990,125.368240 91.060608,120.338455 
z"/>
<path fill="#A9A5A2" opacity="1.000000" stroke="none" 
	d="
M143.609024,107.109932 
	C143.985199,107.499962 143.974045,108.011902 144.025818,108.905540 
	C142.956619,109.554611 141.824493,109.821991 140.354279,110.198013 
	C138.261459,109.468338 136.506714,108.630005 134.780060,106.944168 
	C134.812073,103.423409 134.815994,100.750130 134.819916,98.076859 
	C134.819901,98.076859 135.002151,97.932137 134.983017,97.817383 
	C135.629639,98.924835 136.652451,100.085388 136.876648,101.383827 
	C137.204971,103.285332 136.961151,105.285622 136.961151,108.060997 
	C139.296112,107.751747 141.258896,107.491791 143.609024,107.109932 
z"/>
<path fill="#A9AAA2" opacity="1.000000" stroke="none" 
	d="
M88.947174,107.027283 
	C88.185730,107.713799 87.424286,108.400322 86.336319,109.216782 
	C84.934456,109.290092 83.859131,109.233459 82.381454,109.204308 
	C81.576195,105.377579 81.173286,101.523384 80.869537,97.202980 
	C81.486000,96.615471 82.003304,96.494164 83.005554,96.646194 
	C83.393272,98.283287 83.296051,99.647018 83.137268,101.434189 
	C83.075714,103.796875 83.075714,105.736115 83.075714,107.631363 
	C85.395531,107.392693 87.171349,107.209991 88.947174,107.027283 
z"/>
<path fill="#4D4C48" opacity="1.000000" stroke="none" 
	d="
M60.402401,104.032852 
	C60.731743,101.355728 61.061085,98.678619 61.534725,94.828506 
	C63.232624,97.571411 64.117966,99.001656 64.674171,100.860703 
	C64.174461,102.128593 64.003883,102.967682 63.409885,103.890488 
	C62.125107,103.993752 61.263752,104.013298 60.402401,104.032852 
z"/>
<path fill="#21211F" opacity="1.000000" stroke="none" 
	d="
M83.198837,101.010757 
	C83.296051,99.647018 83.393272,98.283287 83.392143,96.549393 
	C85.051125,96.186508 86.808456,96.193764 88.820206,96.415260 
	C89.294083,97.191696 89.513542,97.753906 89.528984,98.623215 
	C88.310966,99.026184 87.296974,99.122047 86.282974,99.217918 
	C86.284981,99.417435 86.286987,99.616951 86.288994,99.816460 
	C86.878128,99.889969 87.467255,99.963478 88.056389,100.036987 
	C88.056389,100.036987 88.036118,100.535530 87.618866,100.778458 
	C85.867363,101.017845 84.533096,101.014305 83.198837,101.010757 
z"/>
<path fill="#252421" opacity="1.000000" stroke="none" 
	d="
M51.665211,102.776657 
	C50.918854,101.569168 50.455402,100.202957 49.954353,98.443954 
	C51.139442,97.360413 52.362129,96.669678 53.584820,95.978943 
	C54.057892,96.234711 54.530964,96.490479 55.004036,96.746239 
	C53.985397,98.703468 52.966759,100.660706 51.665211,102.776657 
z"/>
<path fill="#CDCCC8" opacity="1.000000" stroke="none" 
	d="
M159.717789,102.487839 
	C158.707031,104.155121 157.696274,105.822403 156.419662,107.727303 
	C156.110397,105.309135 156.067001,102.653343 156.069061,99.558197 
	C156.574982,99.254356 157.035461,99.389877 157.554840,100.096130 
	C158.353821,101.273697 159.093857,101.880539 159.804871,102.486359 
	C159.775833,102.485336 159.717789,102.487839 159.717789,102.487839 
z"/>
<path fill="#110402" opacity="1.000000" stroke="none" 
	d="
M93.504776,114.061218 
	C94.195778,114.465546 94.547775,114.933739 95.005524,115.677689 
	C93.951668,116.557213 92.792068,117.160973 91.335663,117.897865 
	C91.747826,116.729019 92.456802,115.427048 93.504776,114.061218 
z"/>
<path fill="#110402" opacity="1.000000" stroke="none" 
	d="
M112.146805,125.271370 
	C112.749260,124.997597 113.499390,124.988678 114.624542,124.988998 
	C114.097870,125.177559 113.196182,125.356895 112.146805,125.271370 
z"/>
<path fill="#93928D" opacity="1.000000" stroke="none" 
	d="
M151.993942,109.092735 
	C151.950394,109.087173 152.002396,108.878670 152.002396,108.878670 
	C152.002396,108.878670 152.037491,109.098297 151.993942,109.092735 
z"/>
<path fill="#F3F2EE" opacity="1.000000" stroke="none" 
	d="
M63.833313,103.806763 
	C64.003883,102.967682 64.174461,102.128593 64.650696,101.181702 
	C64.956352,101.073898 65.103157,101.532043 65.212036,101.746536 
	C65.094467,102.929047 64.868019,103.897072 64.291489,105.003296 
	C63.941399,105.141502 64.070282,105.060684 64.011726,104.708382 
	C63.913212,104.172974 63.873260,103.989868 63.833313,103.806763 
z"/>
<path fill="#110402" opacity="1.000000" stroke="none" 
	d="
M90.760559,118.075516 
	C91.038261,118.471413 91.032974,118.905167 91.020836,119.664284 
	C90.533264,119.672638 90.052536,119.355621 89.571815,119.038612 
	C89.873734,118.730202 90.175652,118.421783 90.760559,118.075516 
z"/>
<path fill="#BBBAB7" opacity="1.000000" stroke="none" 
	d="
M63.409885,103.890488 
	C63.873260,103.989868 63.913212,104.172974 64.001671,104.632980 
	C62.920212,104.890060 61.790253,104.870247 60.531349,104.441635 
	C61.263752,104.013298 62.125107,103.993752 63.409885,103.890488 
z"/>
<path fill="#020101" opacity="1.000000" stroke="none" 
	d="
M67.991470,104.318069 
	C68.418312,104.338333 68.711403,104.508514 69.004494,104.678688 
	C68.622238,104.608452 68.239975,104.538216 67.991470,104.318069 
z"/>
<path fill="#86220B" opacity="1.000000" stroke="none" 
	d="
M100.378250,118.427765 
	C99.055321,116.222610 97.937958,114.241753 96.739357,112.311340 
	C92.548897,105.562378 93.538490,99.128601 97.828392,92.856117 
	C98.651970,91.651909 99.371902,90.376808 100.091415,88.711700 
	C100.043182,88.288986 100.259109,87.992081 100.809784,88.025665 
	C108.302574,86.362480 115.245705,85.085770 122.456642,88.146088 
	C124.411522,88.572342 126.108696,88.861679 127.805862,89.151024 
	C127.805862,89.151024 127.843109,89.176338 127.952881,89.553879 
	C128.387100,92.286285 128.711548,94.641159 128.949860,97.319260 
	C128.850082,99.473602 128.836441,101.304718 128.515686,103.104691 
	C127.794998,103.049370 127.381416,103.025192 126.974098,102.607391 
	C126.942711,101.164948 126.905052,100.116119 126.864166,98.709183 
	C124.939201,96.528671 123.017464,94.706276 120.988060,92.538445 
	C113.696266,86.787132 108.653603,88.948181 100.625458,94.949448 
	C99.871460,95.670937 99.418587,96.307434 98.636932,97.035461 
	C97.879677,98.086594 97.451187,99.046196 97.015427,100.379860 
	C97.006462,101.502167 97.004784,102.250412 96.791466,103.181213 
	C97.018028,104.256142 97.456230,105.148499 97.901413,106.431686 
	C97.933144,113.519539 103.226891,115.011749 108.356125,117.044754 
	C110.819092,117.058342 112.915794,117.055450 115.362221,117.042694 
	C117.137665,116.345016 118.563377,115.657196 120.333801,114.935440 
	C122.115013,113.598167 123.551506,112.294823 125.023170,110.685791 
	C125.086533,109.970863 125.114723,109.561630 125.438461,109.057175 
	C126.554184,108.329803 127.374344,107.697639 128.214294,107.411316 
	C128.541107,109.067955 128.848160,110.378761 128.895172,111.874191 
	C128.122757,112.716454 127.610390,113.374077 127.098022,114.031708 
	C125.857468,116.182198 125.177986,118.632416 121.811234,118.868813 
	C120.470505,118.962967 119.272491,121.089638 118.578232,121.750031 
	C115.283600,121.750031 112.351540,121.220039 109.712685,121.873718 
	C105.712463,122.864624 103.168861,120.956482 100.378250,118.427765 
z"/>
<path fill="#4B180B" opacity="1.000000" stroke="none" 
	d="
M127.433182,114.028503 
	C127.610390,113.374077 128.122757,112.716454 129.183716,111.910088 
	C130.117493,111.809502 130.502670,111.857658 130.887848,111.905815 
	C130.887848,111.905815 131.047943,111.898048 131.053650,112.206734 
	C131.042603,112.682411 131.025848,112.849403 131.009094,113.016403 
	C130.536957,113.291931 130.064819,113.567467 129.352509,113.971664 
	C128.664337,114.075317 128.216354,114.050308 127.433182,114.028503 
z"/>
<path fill="#BE5C33" opacity="1.000000" stroke="none" 
	d="
M122.198929,88.009186 
	C115.245705,85.085770 108.302574,86.362480 100.908669,88.019997 
	C102.138947,86.790092 103.821007,85.599449 105.753998,84.181030 
	C110.755341,84.529953 115.505760,85.106651 120.860329,86.002655 
	C121.709297,86.884377 121.954117,87.446777 122.198929,88.009186 
z"/>
<path fill="#211313" opacity="1.000000" stroke="none" 
	d="
M83.137276,101.434189 
	C84.533096,101.014305 85.867363,101.017845 87.602341,101.027390 
	C88.944366,102.887909 92.263336,104.148445 89.212158,106.980713 
	C87.171349,107.209991 85.395531,107.392693 83.075714,107.631363 
	C83.075714,105.736115 83.075714,103.796875 83.137276,101.434189 
z"/>
<path fill="#140806" opacity="1.000000" stroke="none" 
	d="
M88.357132,99.995651 
	C87.467255,99.963478 86.878128,99.889969 86.288994,99.816460 
	C86.286987,99.616951 86.284981,99.417435 86.282974,99.217918 
	C87.296974,99.122047 88.310966,99.026184 89.670395,98.888748 
	C89.563179,99.216232 89.110535,99.585274 88.357132,99.995651 
z"/>
<path fill="#4B180B" opacity="1.000000" stroke="none" 
	d="
M129.035995,96.996033 
	C128.711548,94.641159 128.387100,92.286285 127.974838,89.558907 
	C129.246750,91.298744 130.563416,93.440636 131.984390,95.510933 
	C132.693100,96.543472 133.592712,97.445000 134.612946,98.241318 
	C134.815994,100.750130 134.812073,103.423409 134.732544,106.533951 
	C133.979736,106.984192 133.302505,106.997162 132.238129,106.575165 
	C130.912643,103.092148 129.974319,100.044090 129.035995,96.996033 
z"/>
<path fill="#4B180B" opacity="1.000000" stroke="none" 
	d="
M122.456642,88.146088 
	C121.954117,87.446777 121.709297,86.884377 121.232819,86.118858 
	C124.202431,84.220833 126.334610,85.435921 127.811417,88.785400 
	C126.108696,88.861679 124.411522,88.572342 122.456642,88.146088 
z"/>
<path fill="#C05C26" opacity="1.000000" stroke="none" 
	d="
M128.949860,97.319260 
	C129.974319,100.044090 130.912643,103.092148 131.899567,106.569244 
	C131.948181,106.998283 131.807785,107.360420 131.619431,107.723846 
	C131.247482,108.381096 131.191330,108.697517 131.176849,109.374031 
	C131.143051,110.168037 131.195023,110.624565 131.247009,111.081085 
	C131.247009,111.081085 131.032791,111.478912 130.960327,111.692368 
	C130.502670,111.857658 130.117493,111.809502 129.443756,111.725464 
	C128.848160,110.378761 128.541107,109.067955 128.398132,107.127243 
	C128.649094,105.376831 128.735947,104.256332 128.822800,103.135826 
	C128.836441,101.304718 128.850082,99.473602 128.949860,97.319260 
z"/>
<path fill="#3E1108" opacity="1.000000" stroke="none" 
	d="
M131.477097,111.045753 
	C131.195023,110.624565 131.143051,110.168037 131.375305,109.372871 
	C131.659531,109.034225 132.057938,109.042709 132.057938,109.042709 
	C131.941010,109.698616 131.824097,110.354515 131.477097,111.045753 
z"/>
<path fill="#4B180B" opacity="1.000000" stroke="none" 
	d="
M132.019989,108.712997 
	C132.057938,109.042709 131.659531,109.034225 131.461075,109.035385 
	C131.191330,108.697517 131.247482,108.381096 131.609802,107.917816 
	C131.853043,107.959991 131.917557,108.171631 132.019989,108.712997 
z"/>
<path fill="#3E1108" opacity="1.000000" stroke="none" 
	d="
M131.153381,112.927002 
	C131.025848,112.849403 131.042603,112.682411 131.104858,112.268372 
	C131.492538,112.249489 131.541626,112.521584 131.153381,112.927002 
z"/>
<path fill="#211313" opacity="1.000000" stroke="none" 
	d="
M159.833908,102.487381 
	C159.093857,101.880539 158.353821,101.273697 157.725159,100.275970 
	C158.822266,100.260963 159.808014,100.636826 160.538330,101.517120 
	C160.133240,102.176826 159.983582,102.332100 159.833908,102.487381 
z"/>
<path fill="#93928D" opacity="1.000000" stroke="none" 
	d="
M159.804871,102.486359 
	C159.983582,102.332100 160.133240,102.176826 160.565353,101.863846 
	C161.046906,101.940643 161.246017,102.175148 161.445129,102.409653 
	C161.058151,102.532303 160.671158,102.654961 160.000977,102.632729 
	C159.717789,102.487839 159.775833,102.485336 159.804871,102.486359 
z"/>
<path fill="#3E0B04" opacity="1.000000" stroke="none" 
	d="
M126.867401,99.067291 
	C126.905052,100.116119 126.942711,101.164948 126.612900,102.713371 
	C125.877930,105.192772 125.510422,107.172585 125.142914,109.152390 
	C125.114723,109.561630 125.086533,109.970863 124.654350,110.685188 
	C122.835472,111.995567 121.420593,113.000854 119.668610,113.855896 
	C115.781151,112.097565 114.806450,113.813217 115.012489,117.052559 
	C112.915794,117.055450 110.819092,117.058342 108.425636,116.718185 
	C108.522659,115.429596 108.916443,114.484070 108.850998,114.641205 
	C105.814026,112.526024 103.312546,110.783806 101.560051,109.563240 
	C103.205711,106.976982 104.112282,105.552254 105.263779,103.882927 
	C106.186699,102.147263 106.864693,100.656189 107.542686,99.165115 
	C107.188072,98.927872 106.833466,98.690628 106.478851,98.453377 
	C105.671875,99.644165 104.864891,100.834946 103.706482,101.931580 
	C102.545563,99.513107 101.736076,97.188782 100.926590,94.864456 
	C108.653603,88.948181 113.696266,86.787132 120.970383,92.921982 
	C121.195129,95.510056 121.329887,97.369141 121.464645,99.228233 
	C121.099091,99.278175 120.733536,99.328117 120.367973,99.378059 
	C119.404503,98.270805 118.441032,97.163551 116.763817,95.236046 
	C116.240746,101.308594 120.473068,101.705513 122.308014,103.053131 
	C124.144051,101.448051 125.505722,100.257668 126.867401,99.067291 
M115.067177,107.755066 
	C114.876968,108.968269 114.686760,110.181465 114.496559,111.394669 
	C115.217705,111.253464 115.938850,111.112267 116.659988,110.971062 
	C116.195816,109.694748 115.731644,108.418442 115.067177,107.755066 
M115.867645,102.667946 
	C115.936935,102.548668 116.006218,102.429390 116.075516,102.310120 
	C115.966301,102.360558 115.857086,102.411003 115.867645,102.667946 
z"/>
<path fill="#480D05" opacity="1.000000" stroke="none" 
	d="
M100.625458,94.949448 
	C101.736076,97.188782 102.545563,99.513107 103.726517,102.231888 
	C104.404945,103.126747 104.711899,103.627136 105.018845,104.127525 
	C104.112282,105.552254 103.205711,106.976982 101.560051,109.563240 
	C103.312546,110.783806 105.814026,112.526024 108.850998,114.641205 
	C108.916443,114.484070 108.522659,115.429596 108.059364,116.701698 
	C103.226891,115.011749 97.933144,113.519539 98.145264,106.221870 
	C97.922462,104.747040 97.462784,103.872841 97.003105,102.998650 
	C97.004784,102.250412 97.006462,101.502167 97.346619,100.299149 
	C98.111961,98.877556 98.538841,97.910744 98.965714,96.943932 
	C99.418587,96.307434 99.871460,95.670937 100.625458,94.949448 
z"/>
<path fill="#571209" opacity="1.000000" stroke="none" 
	d="
M126.864166,98.709175 
	C125.505722,100.257668 124.144051,101.448051 122.308014,103.053131 
	C120.473068,101.705513 116.240746,101.308594 116.763817,95.236046 
	C118.441032,97.163551 119.404503,98.270805 120.367973,99.378059 
	C120.733536,99.328117 121.099091,99.278175 121.464645,99.228233 
	C121.329887,97.369141 121.195129,95.510056 121.078049,93.267426 
	C123.017464,94.706276 124.939201,96.528671 126.864166,98.709175 
z"/>
<path fill="#571209" opacity="1.000000" stroke="none" 
	d="
M125.438461,109.057175 
	C125.510422,107.172585 125.877930,105.192772 126.606628,103.106987 
	C127.381416,103.025192 127.794998,103.049370 128.515686,103.104691 
	C128.735947,104.256332 128.649094,105.376831 128.378372,106.781403 
	C127.374344,107.697639 126.554184,108.329803 125.438461,109.057175 
z"/>
<path fill="#480D05" opacity="1.000000" stroke="none" 
	d="
M115.362221,117.042694 
	C114.806450,113.813217 115.781151,112.097565 119.665291,114.096695 
	C119.999077,114.487732 119.989090,114.969376 119.989090,114.969376 
	C118.563377,115.657196 117.137665,116.345016 115.362221,117.042694 
z"/>
<path fill="#571209" opacity="1.000000" stroke="none" 
	d="
M120.333801,114.935440 
	C119.989090,114.969376 119.999077,114.487732 120.002396,114.246941 
	C121.420593,113.000854 122.835472,111.995567 124.619179,110.990875 
	C123.551506,112.294823 122.115013,113.598167 120.333801,114.935440 
z"/>
<path fill="#561108" opacity="1.000000" stroke="none" 
	d="
M96.791466,103.181213 
	C97.462784,103.872841 97.922462,104.747040 98.138290,105.831047 
	C97.456230,105.148499 97.018028,104.256142 96.791466,103.181213 
z"/>
<path fill="#561108" opacity="1.000000" stroke="none" 
	d="
M98.636940,97.035461 
	C98.538841,97.910744 98.111961,98.877556 97.353897,99.925079 
	C97.451187,99.046196 97.879677,98.086594 98.636940,97.035461 
z"/>
<path fill="#480D05" opacity="1.000000" stroke="none" 
	d="
M115.167328,107.448593 
	C115.731644,108.418442 116.195816,109.694748 116.659988,110.971062 
	C115.938850,111.112267 115.217705,111.253464 114.496559,111.394669 
	C114.686760,110.181465 114.876968,108.968269 115.167328,107.448593 
z"/>
<path fill="#6D2115" opacity="1.000000" stroke="none" 
	d="
M105.263779,103.882927 
	C104.711899,103.627136 104.404945,103.126747 104.077957,102.326042 
	C104.864891,100.834946 105.671875,99.644165 106.478851,98.453377 
	C106.833466,98.690628 107.188072,98.927872 107.542686,99.165115 
	C106.864693,100.656189 106.186699,102.147263 105.263779,103.882927 
z"/>
<path fill="#571209" opacity="1.000000" stroke="none" 
	d="
M115.807755,102.564697 
	C115.857086,102.411003 115.966301,102.360558 116.075516,102.310112 
	C116.006218,102.429390 115.936935,102.548668 115.807755,102.564697 
z"/>
</svg>